HIERARCHY
ROOT Hips
{
  OFFSET 26.9316 98.8111 -11.6566
  CHANNELS 6 Xposition Yposition Zposition Zrotation Xrotation Yrotation
  JOINT spine
  {
    OFFSET 0 8.30104 0.477351
    CHANNELS 3 Zrotation Xrotation Yrotation
    JOINT spine1
    {
      OFFSET 0 10.4565 0
      CHANNELS 3 Zrotation Xrotation Yrotation
      JOINT spine2
      {
        OFFSET 0 10.0192 0
        CHANNELS 3 Zrotation Xrotation Yrotation
        JOINT Neck
        {
          OFFSET 0 25.7235 1.22641
          CHANNELS 3 Zrotation Xrotation Yrotation
          JOINT Head
          {
            OFFSET 0 7.77175 0
            CHANNELS 3 Zrotation Xrotation Yrotation
            End Site
            {
              OFFSET 0 18.812 -6.20394
            }
          }
        }
        JOINT RightShoulder
        {
          OFFSET -4.2188 10.82 -0.587439
          CHANNELS 3 Zrotation Xrotation Yrotation
          JOINT RightArm
          {
            OFFSET 0 14.1914 0
            CHANNELS 3 Zrotation Xrotation Yrotation
            JOINT RightArmRoll
            {
              OFFSET 0 7.16408 0
              CHANNELS 3 Zrotation Xrotation Yrotation
              JOINT RightForeArm
              {
                OFFSET 0 20.8665 0
                CHANNELS 3 Zrotation Xrotation Yrotation
                JOINT RightForeArmRoll
                {
                  OFFSET 0 8.03921 0
                  CHANNELS 3 Zrotation Xrotation Yrotation
                  JOINT RightHand
                  {
                    OFFSET 0 16.133 0
                    CHANNELS 3 Zrotation Xrotation Yrotation
                    End Site
                    {
                      OFFSET 0 0 0
                    }
                  }
                }
              }
            }
          }
        }
        JOINT LeftShoulder
        {
          OFFSET 4.2188 10.82 -0.587439
          CHANNELS 3 Zrotation Xrotation Yrotation
          JOINT LeftArm
          {
            OFFSET 0 14.1914 0
            CHANNELS 3 Zrotation Xrotation Yrotation
            JOINT LeftArmRoll
            {
              OFFSET 0 7.16409 0
              CHANNELS 3 Zrotation Xrotation Yrotation
              JOINT LeftForeArm
              {
                OFFSET 0 20.8665 0
                CHANNELS 3 Zrotation Xrotation Yrotation
                JOINT LeftForeArmRoll
                {
                  OFFSET 0 8.03921 0
                  CHANNELS 3 Zrotation Xrotation Yrotation
                  JOINT LeftHand
                  {
                    OFFSET 0 16.133 0
                    CHANNELS 3 Zrotation Xrotation Yrotation
                    End Site
                    {
                      OFFSET 0 0 0
                    }
                  }
                }
              }
            }
          }
        }
      }
    }
  }
  JOINT RightUpLeg
  {
    OFFSET -7.35773 -1.34921 -1.13182
    CHANNELS 3 Zrotation Xrotation Yrotation
    JOINT RightUpLegRoll
    {
      OFFSET 0 18.9168 0
      CHANNELS 3 Zrotation Xrotation Yrotation
      JOINT RightLeg
      {
        OFFSET 0 -23.4256 0
        CHANNELS 3 Zrotation Xrotation Yrotation
        JOINT RightLegRoll
        {
          OFFSET 0 23.5023 0
          CHANNELS 3 Zrotation Xrotation Yrotation
          JOINT RightFoot
          {
            OFFSET 0 19.5617 0
            CHANNELS 3 Zrotation Xrotation Yrotation
            JOINT RightToeBase
            {
              OFFSET 0 16.3526 0
              CHANNELS 3 Zrotation Xrotation Yrotation
              End Site
              {
                OFFSET 0.00693125 7.91943 -0.912837
              }
            }
          }
        }
      }
    }
  }
  JOINT LeftUpLeg
  {
    OFFSET 7.35773 -1.34921 -1.13182
    CHANNELS 3 Zrotation Xrotation Yrotation
    JOINT LeftUpLegRoll
    {
      OFFSET 0 18.9169 0
      CHANNELS 3 Zrotation Xrotation Yrotation
      JOINT LeftLeg
      {
        OFFSET 0 23.4255 0
        CHANNELS 3 Zrotation Xrotation Yrotation
        JOINT LeftLegRoll
        {
          OFFSET 0 23.7195 0
          CHANNELS 3 Zrotation Xrotation Yrotation
          JOINT LeftFoot
          {
            OFFSET 0 19.3444 0
            CHANNELS 3 Zrotation Xrotation Yrotation
            JOINT LeftToeBase
            {
              OFFSET 0 16.3526 0
              CHANNELS 3 Zrotation Xrotation Yrotation
              End Site
              {
                OFFSET -0.0310629 7.91944 -0.912837
              }
            }
          }
        }
      }
    }
  }
}
MOTION
Frames: 9
Frame Time: 0.00208333
27.0736 120.648 -2.06164 0.637643 -1.95973 4.95146 0.206635 -0.540872 0.342716 0.407133 2.92228 0.677522 0.399472 4.56728 0.671286 -1.22586 10.6317 -3.1764 -0.863787 -7.32302 -3.62234 66.9031 -3.00158 -2.55041 97.7315 11.8592 23.8133 -1.07344e-014 1.59028e-015 -0 13.5563 0.154861 0.12596 -1.64784e-005 -8.30533e-007 -3.00702 8.02938 -4.95141 0.697659 -64.6085 3.88276 -1.39627 -98.1081 7.84207 -13.9378 -6.55989e-015 -3.97569e-015 -0 -12.5224 12.7121 1.9328 -1.3979e-006 -3.85601e-006 3 -8.02902 -4.95146 -0.697674 172.679 0.951238 3.81646 180 7.01496e-015 178.722 176.271 14.4759 179.665 -5.41661e-007 -1.62237e-006 0.193896 -17.6674 66.6503 18.4734 8.13649 25.2326 -3.48774 -167.809 6.62349 -5.14875 4.54188e-006 -4.6773e-006 -1.26971 -3.41531 -19.8828 0.324161 2.68211e-006 -3.53441e-006 -0.293399 18.0719 67.1481 -18.8552 -8.1365 25.2327 3.48774 
27.0976 120.638 -2.09875 0.643122 -1.94427 4.94462 0.203989 -0.547561 0.340978 0.401951 2.90888 0.673885 0.394313 4.55388 0.667731 -1.19909 10.7408 -3.18411 -0.850598 -7.37015 -3.62246 66.9161 -3.00296 -2.5522 97.7008 11.827 23.7579 1.23246e-014 -7.95139e-015 -3.18055e-015 13.617 0.218116 0.121314 -1.64784e-005 -8.30533e-007 -3.00677 8.02938 -4.95141 0.697659 -64.5951 3.87589 -1.39473 -98.0826 7.8174 -13.9128 8.34896e-015 0 -0 -12.5454 12.7808 1.94266 -1.3979e-006 -3.85601e-006 3 -8.02902 -4.95146 -0.697674 172.69 0.892127 3.77306 180 7.01497e-015 178.724 176.3 14.3016 179.662 -5.41661e-007 -1.62237e-006 0.190174 -17.6658 66.6469 18.4704 8.13649 25.2326 -3.48774 -167.816 6.61999 -5.14028 4.54188e-006 -4.6773e-006 -1.27008 -3.4114 -19.8666 0.324278 2.68211e-006 -3.53441e-006 -0.292952 18.0673 67.1423 -18.8507 -8.1365 25.2327 3.48774 
27.1009 120.622 -2.11887 0.650129 -1.92729 4.93844 0.201067 -0.554721 0.339364 0.396306 2.89454 0.67021 0.388683 4.53954 0.664148 -1.17766 10.8545 -3.19272 -0.829948 -7.42314 -3.62355 66.9285 -3.00441 -2.55396 97.6723 11.7937 23.7073 8.74653e-015 -5.56597e-015 -0 13.6728 0.290565 0.114323 -1.64784e-005 -8.30533e-007 -3.00657 8.02938 -4.95141 0.697659 -64.5857 3.87023 -1.3932 -98.0523 7.79057 -13.8881 -3.47873e-015 -1.98785e-015 -0 -12.5697 12.8509 1.95279 -1.3979e-006 -3.85601e-006 3 -8.02902 -4.95146 -0.697674 172.699 0.829679 3.73013 180 7.01498e-015 178.727 176.329 14.1178 179.659 -5.41661e-007 -1.62237e-006 0.186319 -17.6639 66.6433 18.4671 8.13649 25.2326 -3.48774 -167.826 6.61592 -5.12978 4.54188e-006 -4.6773e-006 -1.27041 -3.40764 -19.8452 0.324276 2.68211e-006 -3.53441e-006 -0.292373 18.0629 67.1366 -18.8463 -8.1365 25.2327 3.48774 
27.122 120.614 -2.10601 0.658504 -1.90897 4.93279 0.197913 -0.562268 0.337868 0.390268 2.87942 0.666522 0.382655 4.52443 0.660558 -1.16089 10.9721 -3.20211 -0.802976 -7.48121 -3.62549 66.9405 -3.00586 -2.55568 97.6456 11.7598 23.6612 -1.59028e-015 -6.36111e-015 -3.18055e-015 13.7242 0.371225 0.105227 -1.64784e-005 -8.30533e-007 -3.00642 8.02938 -4.95141 0.697659 -64.5798 3.8656 -1.39167 -98.0179 7.762 -13.8638 1.09332e-015 -3.97569e-015 -0 -12.595 12.9218 1.96311 -1.3979e-006 -3.85601e-006 3 -8.02902 -4.95146 -0.697674 172.706 0.764559 3.68779 180 7.01498e-015 178.729 176.357 13.926 179.656 -5.41661e-007 -1.62237e-006 0.182356 -17.6617 66.6395 18.4636 8.13649 25.2326 -3.48774 -167.837 6.6114 -5.1175 4.54188e-006 -4.6773e-006 -1.27071 -3.40408 -19.8192 0.324165 2.68211e-006 -3.53441e-006 -0.291681 18.0586 67.1311 -18.842 -8.1365 25.2327 3.48774 
27.1087 120.584 -2.14222 0.668088 -1.88952 4.92749 0.194569 -0.570119 0.336478 0.383908 2.8637 0.662845 0.376303 4.5087 0.656983 -1.14806 11.0926 -3.21216 -0.770825 -7.54359 -3.62816 66.9521 -3.00727 -2.55735 97.6202 11.7254 23.6189 -1.03368e-014 -7.95139e-016 -0 13.7717 0.459116 0.0942662 -1.64784e-005 -8.30533e-007 -3.0063 8.02938 -4.95141 0.697659 -64.5768 3.86184 -1.39014 -97.9802 7.73211 -13.8403 -3.97569e-015 -4.96962e-015 -1.59028e-015 -12.6209 12.9932 1.97357 -1.3979e-006 -3.85601e-006 3 -8.02902 -4.95146 -0.697674 172.711 0.697429 3.64618 180 7.01499e-015 178.731 176.385 13.7276 179.653 -5.41661e-007 -1.62237e-006 0.178307 -17.6593 66.6355 18.4599 8.13649 25.2326 -3.48774 -167.85 6.60656 -5.10368 4.54188e-006 -4.6773e-006 -1.27097 -3.40075 -19.7892 0.323953 2.68211e-006 -3.53441e-006 -0.290893 18.0544 67.1257 -18.8378 -8.1365 25.2327 3.48774 
27.14 120.558 -2.17102 0.678719 -1.86913 4.92238 0.191077 -0.578189 0.335186 0.377299 2.84753 0.659202 0.3697 4.49254 0.653448 -1.13848 11.2154 -3.22274 -0.734636 -7.60949 -3.63146 66.9636 -3.00855 -2.55894 97.5957 11.6909 23.5801 -5.96354e-015 -2.38542e-015 -3.18055e-015 13.8156 0.553257 0.0816817 -1.64784e-005 -8.30533e-007 -3.00622 8.02938 -4.95141 0.697659 -64.5762 3.85877 -1.38858 -97.9399 7.70131 -13.8176 4.27387e-015 -2.78299e-015 -0 -12.647 13.0649 1.98409 -1.3979e-006 -3.85601e-006 3 -8.02902 -4.95146 -0.697674 172.715 0.628953 3.6054 180 7.015e-015 178.734 176.412 13.5241 179.65 -5.41661e-007 -1.62237e-006 0.174196 -17.6567 66.6313 18.456 8.13649 25.2326 -3.48774 -167.864 6.60152 -5.08858 4.54188e-006 -4.6773e-006 -1.2712 -3.39768 -19.7559 0.323649 2.68211e-006 -3.53441e-006 -0.290029 18.0503 67.1204 -18.8336 -8.1365 25.2327 3.48774 
27.1321 120.526 -2.19076 0.69024 -1.84799 4.91732 0.187481 -0.586394 0.333983 0.370513 2.8311 0.655616 0.362919 4.4761 0.649972 -1.13145 11.3395 -3.23372 -0.695548 -7.67815 -3.63528 66.9752 -3.00966 -2.56044 97.5718 11.6563 23.5442 1.07344e-014 -3.97569e-015 3.18055e-015 13.8565 0.652667 0.0677136 -1.64784e-005 -8.30533e-007 -3.00616 8.02938 -4.95141 0.697659 -64.5776 3.85621 -1.38699 -97.8979 7.67002 -13.7959 -7.95139e-015 -3.57812e-015 1.59028e-015 -12.6729 13.1363 1.99461 -1.3979e-006 -3.85601e-006 3 -8.02902 -4.95146 -0.697674 172.717 0.559793 3.56558 180 7.015e-015 178.736 176.438 13.3171 179.647 -5.41661e-007 -1.62237e-006 0.170047 -17.6539 66.6269 18.4519 8.13649 25.2326 -3.48774 -167.88 6.5964 -5.07245 4.54188e-006 -4.6773e-006 -1.27141 -3.39491 -19.7199 0.323261 2.68211e-006 -3.53441e-006 -0.289105 18.0461 67.1151 -18.8295 -8.1365 25.2327 3.48774 
27.145 120.5 -2.21427 0.70249 -1.8263 4.91215 0.183822 -0.594651 0.332859 0.36362 2.81456 0.652112 0.356035 4.45957 0.64658 -1.12627 11.4641 -3.24499 -0.654703 -7.74878 -3.6395 66.9869 -3.01052 -2.56182 97.5481 11.6221 23.5109 -8.34896e-015 -7.95139e-016 -3.18055e-015 13.8948 0.756365 0.0526025 -1.64784e-005 -8.30533e-007 -3.00613 8.02938 -4.95141 0.697659 -64.5804 3.854 -1.38535 -97.8549 7.63866 -13.7755 7.35503e-015 -9.93923e-016 -3.18055e-015 -12.6982 13.2073 2.00507 -1.3979e-006 -3.85601e-006 3 -8.02902 -4.95146 -0.697674 172.717 0.490614 3.52684 180 7.01501e-015 178.738 176.464 13.108 179.645 -5.41661e-007 -1.62237e-006 0.165882 -17.651 66.6223 18.4477 8.13649 25.2326 -3.48774 -167.896 6.59132 -5.05555 4.54188e-006 -4.6773e-006 -1.27159 -3.39249 -19.6819 0.3228 2.68211e-006 -3.53441e-006 -0.288141 18.0421 67.1099 -18.8254 -8.1365 25.2327 3.48774 
27.1718 120.457 -2.2368 0.71531 -1.80426 4.90669 0.180144 -0.602876 0.331805 0.356693 2.79809 0.648713 0.349121 4.44309 0.643293 -1.12225 11.5884 -3.2564 -0.613239 -7.8206 -3.644 66.999 -3.01107 -2.56308 97.5241 11.5884 23.4795 3.97569e-016 -1.59028e-015 -0 13.931 0.86337 0.0365885 -1.64784e-005 -8.30533e-007 -3.00611 8.02938 -4.95141 0.697659 -64.5842 3.85196 -1.38365 -97.8116 7.60764 -13.7565 5.96354e-016 1.98785e-016 -0 -12.7226 13.2773 2.01539 -1.3979e-006 -3.85601e-006 3 -8.02902 -4.95146 -0.697674 172.715 0.422079 3.48929 180 7.01501e-015 178.741 176.489 12.8982 179.643 -5.41661e-007 -1.62237e-006 0.161725 -17.6479 66.6176 18.4434 8.13649 25.2326 -3.48774 -167.913 6.58641 -5.03811 4.54188e-006 -4.6773e-006 -1.27175 -3.39045 -19.6424 0.322272 2.68211e-006 -3.53441e-006 -0.287154 18.038 67.1047 -18.8213 -8.1365 25.2327 3.48774 
